<?xml version="1.0" standalone="no"?>
<!DOCTYPE svg PUBLIC "-//W3C//DTD SVG 20010904//EN"
 "http://www.w3.org/TR/2001/REC-SVG-20010904/DTD/svg10.dtd">
<svg version="1.0" xmlns="http://www.w3.org/2000/svg"
 width="453.000000pt" height="453.000000pt" viewBox="0 0 453.000000 453.000000"
 preserveAspectRatio="xMidYMid meet">
<metadata>
Created by potrace 1.14, written by Peter Selinger 2001-2017
</metadata>
<g transform="translate(0.000000,453.000000) scale(0.100000,-0.100000)"
fill="#000000" stroke="none">
<path d="M2098 4465 c-2 -2 -32 -6 -68 -10 -121 -12 -178 -20 -242 -34 -24 -6
-54 -12 -68 -14 -64 -12 -257 -72 -330 -104 -191 -82 -358 -176 -490 -274
-116 -87 -130 -99 -252 -218 -353 -346 -571 -790 -632 -1286 -14 -108 -14
-441 -1 -530 5 -39 21 -129 29 -170 34 -172 111 -385 201 -561 45 -86 142
-244 181 -294 353 -445 753 -711 1264 -840 117 -29 146 -35 235 -46 28 -3 70
-10 95 -14 48 -9 458 -6 500 3 14 3 46 8 72 11 26 3 58 8 70 10 13 3 39 8 58
10 19 3 71 15 115 27 44 11 85 22 90 23 30 6 181 60 189 67 6 5 16 9 24 9 24
0 236 106 335 167 229 142 449 340 608 548 236 307 388 685 436 1075 16 133 9
446 -13 578 l-7 42 -932 0 c-737 0 -934 -3 -937 -12 -4 -11 -3 -712 1 -729 0
-3 245 -6 544 -6 527 0 542 -1 539 -19 -19 -116 -148 -368 -261 -509 -235
-291 -594 -493 -961 -542 -81 -10 -109 -12 -185 -13 -235 -3 -472 50 -680 151
-44 22 -89 45 -100 52 -44 26 -130 82 -135 87 -3 3 -27 23 -55 44 -71 56 -187
177 -249 260 -116 156 -220 377 -251 537 -19 95 -28 80 76 123 51 21 184 55
249 64 72 9 351 9 415 0 69 -11 181 -31 235 -43 14 -3 39 -8 55 -10 17 -3 37
-8 45 -10 42 -12 124 -20 200 -19 71 0 95 5 141 27 95 45 147 125 136 208 -8
61 -51 125 -105 156 -41 24 -57 28 -127 28 -44 0 -96 -4 -115 -8 -227 -45
-275 -51 -430 -51 -316 0 -612 72 -738 181 l-32 29 25 83 c127 425 521 825
911 925 55 14 117 28 139 32 22 3 42 7 45 9 3 2 26 6 50 9 25 4 63 9 85 13 74
11 258 26 320 27 229 0 578 -137 797 -313 109 -88 145 -123 256 -256 54 -63
171 -266 194 -337 4 -11 784 -16 794 -5 8 7 -19 100 -61 213 -74 200 -166 371
-294 544 l-70 95 25 32 c59 78 71 186 28 270 -67 136 -221 204 -454 203 -69 0
-137 -2 -151 -4 -17 -3 -76 21 -180 73 -139 70 -381 160 -469 176 -16 3 -58
12 -92 19 -35 8 -87 18 -117 21 -30 4 -63 9 -75 12 -23 5 -442 13 -448 8z"/>
</g>
</svg>
